<?xml version="1.0" standalone="no"?>
<!DOCTYPE svg PUBLIC "-//W3C//DTD SVG 20010904//EN"
 "http://www.w3.org/TR/2001/REC-SVG-20010904/DTD/svg10.dtd">
<svg version="1.0" xmlns="http://www.w3.org/2000/svg"
 width="853.000000pt" height="1280.000000pt" viewBox="0 0 853.000000 1280.000000"
 preserveAspectRatio="xMidYMid meet">

<g transform="translate(0.000000,1280.000000) scale(0.100000,-0.100000)"
fill="#000000" stroke="none">
<path d="M5970 7990 c-6 -11 -8 -20 -6 -20 3 0 10 9 16 20 6 11 8 20 6 20 -3
0 -10 -9 -16 -20z"/>
<path d="M5882 7862 c-78 -106 -163 -184 -290 -269 -226 -150 -395 -284 -552
-439 -126 -123 -169 -158 -230 -190 -57 -29 -97 -61 -162 -128 -87 -89 -94
-99 -82 -130 8 -21 71 -59 103 -62 14 -2 31 -10 37 -19 15 -21 41 -19 72 5 17
14 29 17 36 10 16 -16 54 -12 65 8 8 14 12 15 22 5 22 -22 48 -14 71 21 19 29
27 34 51 29 24 -5 35 2 83 51 52 52 58 56 103 56 34 0 67 10 118 35 39 19 85
35 102 35 16 0 76 -11 133 -25 126 -31 195 -31 284 -4 81 25 124 53 124 79 0
26 -30 44 -114 69 -95 29 -214 28 -362 -4 -139 -29 -237 -74 -379 -175 -76
-54 -101 -67 -103 -55 -2 9 4 27 12 40 9 14 12 25 7 25 -16 0 -41 -43 -41 -70
0 -21 -9 -30 -46 -48 l-46 -23 4 43 c3 24 8 51 12 61 5 10 4 17 -2 17 -13 0
-32 -55 -32 -95 0 -34 -13 -45 -52 -45 -19 0 -20 4 -14 48 3 26 8 63 12 82 5
25 3 32 -5 25 -6 -6 -16 -38 -22 -70 -17 -99 -16 -96 -62 -93 -30 2 -43 8 -45
20 -2 10 16 58 41 108 24 49 40 90 36 90 -5 0 -16 -15 -25 -32 -9 -18 -25 -44
-35 -57 -10 -12 -21 -39 -25 -60 -12 -69 -43 -79 -89 -31 l-28 29 73 78 c81
87 98 100 185 145 44 22 101 70 210 177 184 181 308 280 595 475 119 81 193
156 289 294 41 59 14 33 -37 -36z m-66 -867 c95 -22 145 -45 142 -64 -4 -20
-75 -59 -141 -77 -74 -20 -128 -17 -245 11 -135 33 -169 32 -241 -5 -37 -20
-82 -33 -126 -39 l-68 -8 29 24 c45 36 192 109 258 128 147 43 292 54 392 30z
m-726 -240 c-40 -41 -71 -55 -71 -32 0 10 104 87 110 81 3 -3 -15 -25 -39 -49z
m-120 -63 c0 -15 -38 -44 -49 -37 -17 10 -13 21 12 33 28 13 37 14 37 4z
m-110 -42 c0 -5 -8 -10 -17 -10 -15 0 -16 2 -3 10 19 12 20 12 20 0z m-105
-20 c-3 -5 -12 -10 -20 -10 -8 0 -17 5 -20 10 -4 6 5 10 20 10 15 0 24 -4 20
-10z"/>
<path d="M3970 7896 c0 -8 22 -18 61 -25 112 -22 138 -68 139 -238 l0 -93
-339 0 c-187 0 -342 -3 -345 -8 -2 -4 -8 -55 -11 -113 -7 -105 -7 -105 18
-122 25 -16 25 -15 50 21 90 137 205 182 465 182 l152 0 0 -294 0 -294 39 -74
c21 -40 56 -115 77 -165 l38 -93 48 0 c26 0 58 5 72 11 25 12 25 12 -34 47
-38 23 -61 43 -65 59 -3 13 -5 199 -5 413 l1 390 152 0 c93 0 178 -6 220 -15
122 -26 208 -88 265 -193 28 -52 29 -52 47 -32 15 17 17 31 11 102 -3 46 -9
104 -13 131 l-6 47 -336 0 -336 0 -3 130 c-2 72 -1 149 3 172 l7 40 232 -4
c264 -6 333 -17 461 -78 115 -55 243 -167 292 -255 8 -14 19 -10 81 32 39 26
71 54 72 60 0 21 -128 120 -209 162 -99 51 -214 86 -326 100 -53 6 -273 11
-532 11 -369 0 -443 -2 -443 -14z"/>
<path d="M5502 7410 c-39 -28 -74 -55 -76 -59 -3 -5 1 -42 9 -82 8 -41 17
-100 21 -132 5 -48 8 -57 22 -53 9 3 47 10 85 17 l67 11 2 37 c6 126 -21 299
-47 308 -6 2 -43 -20 -83 -47z"/>
<path d="M6058 7383 c-86 -89 -94 -119 -57 -203 11 -25 17 -34 14 -20 -4 14
-10 39 -13 55 -12 47 -5 67 46 129 93 115 95 126 10 39z"/>
<path d="M3025 7265 c-60 -18 -126 -33 -146 -33 -41 0 -308 -54 -291 -60 6 -2
67 8 135 22 68 14 145 26 171 26 26 0 92 14 148 30 55 17 117 30 138 30 81 0
187 -38 357 -128 92 -49 199 -103 236 -120 38 -17 91 -51 118 -76 27 -24 83
-61 124 -82 l74 -39 39 -85 c55 -120 96 -229 89 -236 -3 -4 -23 2 -44 13 -29
14 -45 33 -68 79 -16 33 -42 75 -56 94 -14 19 -29 43 -32 53 -4 11 -17 17 -39
17 -18 0 -53 11 -77 25 -27 16 -57 24 -80 24 -31 -2 -32 -3 -8 -6 23 -4 33
-14 52 -56 12 -29 32 -61 44 -71 14 -13 21 -31 21 -55 0 -20 9 -65 20 -99 21
-67 25 -118 11 -140 -17 -27 -38 14 -44 87 -5 62 -13 84 -73 195 -38 69 -69
124 -71 122 -2 -1 6 -25 17 -52 17 -40 19 -56 10 -78 l-10 -28 -34 29 c-24 19
-35 37 -35 56 -1 42 -17 65 -51 72 -16 4 -30 10 -30 13 0 4 29 20 65 37 75 34
80 48 6 16 -66 -28 -75 -27 -89 13 -13 36 -39 53 -56 36 -7 -7 -3 -19 12 -37
12 -16 33 -52 47 -80 13 -29 35 -64 50 -77 24 -23 25 -26 14 -77 -6 -30 -14
-57 -18 -62 -4 -4 -21 12 -37 35 -40 56 -94 93 -190 128 -60 22 -88 39 -116
71 -40 44 -108 170 -108 200 0 18 -44 59 -64 59 -6 -1 1 -7 15 -15 19 -10 30
-28 38 -59 15 -59 16 -55 -21 -71 -18 -8 -26 -14 -17 -15 8 0 24 6 34 14 18
13 22 9 58 -53 60 -102 87 -124 193 -150 62 -16 129 -66 169 -126 35 -53 35
-56 23 -96 -11 -37 -10 -43 7 -55 16 -12 22 -12 43 2 18 12 30 13 53 5 l30
-10 -20 25 c-16 20 -18 31 -11 45 17 31 27 30 54 -2 26 -30 26 -30 26 -6 0 13
-7 44 -16 68 -14 42 -12 109 4 109 4 0 22 -27 40 -60 23 -41 35 -78 38 -118 7
-80 12 -98 30 -116 22 -23 43 -20 50 8 l6 24 23 -24 c13 -13 29 -24 35 -24 6
0 10 54 11 153 l0 152 28 -60 c31 -66 59 -95 109 -115 69 -27 66 2 -19 194
-64 144 -69 151 -142 187 -85 44 -122 73 -152 124 -36 63 -66 82 -148 95 -72
12 -157 49 -267 116 -67 40 -215 84 -279 84 -25 -1 -95 -16 -156 -35z m772
-200 c17 -7 37 -23 43 -35 10 -18 3 -17 -62 16 -40 20 -75 39 -78 41 -8 8 62
-8 97 -22z m175 -310 c16 -3 35 -18 47 -39 19 -30 21 -49 21 -180 0 -88 -4
-146 -10 -146 -16 0 -41 46 -46 86 -3 22 -12 53 -20 71 -8 17 -14 50 -14 73 0
33 -7 50 -30 76 -16 19 -39 53 -50 74 l-21 40 48 -25 c26 -13 60 -27 75 -30z
m-272 4 c7 -11 9 -28 5 -37 -6 -14 -10 -12 -31 13 -13 17 -24 33 -24 38 0 16
40 6 50 -14z m54 -110 c38 -45 33 -71 -18 -83 -24 -6 -28 -11 -24 -36 4 -23 2
-27 -8 -19 -7 6 -16 19 -19 30 -7 21 23 139 35 139 5 0 20 -14 34 -31z m53
-99 c6 -16 9 -30 6 -30 -11 0 -33 30 -33 44 0 26 15 18 27 -14z m-57 -9 c0 -6
-4 -13 -10 -16 -5 -3 -10 1 -10 9 0 9 5 16 10 16 6 0 10 -4 10 -9z m-52 -78
c-26 -32 -52 -5 -36 37 l9 25 19 -25 c13 -18 16 -28 8 -37z"/>
<path d="M6021 7114 c0 -11 3 -14 6 -6 3 7 2 16 -1 19 -3 4 -6 -2 -5 -13z"/>
<path d="M3050 6896 c-26 -6 -62 -21 -80 -33 -19 -12 -62 -35 -96 -52 -53 -26
-104 -46 -303 -119 -24 -9 -40 -17 -35 -19 26 -9 292 90 387 144 56 32 131 66
167 75 42 11 54 17 35 17 -16 0 -50 -6 -75 -13z"/>
<path d="M3757 6825 c3 -8 9 -12 14 -9 12 7 11 11 -5 17 -10 4 -13 1 -9 -8z"/>
<path d="M5350 6728 c-130 -157 -295 -224 -532 -216 -62 2 -120 7 -128 11 -17
8 -78 -38 -66 -50 12 -12 268 -8 346 6 192 34 386 136 485 255 37 45 33 56
-22 56 -26 0 -39 -10 -83 -62z"/>
<path d="M4585 6583 c-27 -25 -36 -37 -20 -25 28 19 84 73 74 72 -2 -1 -26
-22 -54 -47z"/>
<path d="M4498 6524 c-38 -20 -36 -28 2 -9 17 9 30 18 30 20 0 7 -1 6 -32 -11z"/>
<path d="M4164 6269 c3 -83 2 -161 -3 -184 -12 -50 -58 -92 -108 -100 -73 -12
-83 -15 -83 -30 0 -13 39 -15 280 -15 241 0 280 2 280 15 0 15 -10 18 -83 30
-51 8 -96 50 -107 100 -5 22 -8 99 -8 170 l1 130 -54 6 c-30 3 -69 9 -88 14
l-34 7 7 -143z"/>
<path d="M3020 5640 c-119 -56 -173 -175 -137 -301 33 -110 117 -172 236 -172
75 0 122 17 173 62 83 73 103 220 42 318 -44 71 -109 107 -198 111 -55 2 -81
-2 -116 -18z m158 -16 c80 -33 130 -112 139 -221 13 -144 -97 -248 -223 -213
-99 28 -166 128 -167 251 -1 57 3 74 28 114 50 79 135 106 223 69z"/>
<path d="M3987 5653 c-2 -5 -44 -102 -92 -218 -90 -212 -107 -245 -132 -245
-7 0 -13 -5 -13 -10 0 -12 99 -10 106 2 3 4 -2 8 -11 8 -26 0 -28 25 -5 69
l20 41 123 0 122 0 19 -47 c18 -43 18 -47 2 -59 -24 -17 -11 -22 57 -21 57 0
74 10 38 22 -20 6 -31 30 -147 302 -65 153 -77 174 -87 156z m51 -196 c29 -67
52 -126 52 -130 0 -4 -50 -7 -111 -7 -102 0 -111 1 -105 18 27 72 101 242 106
242 3 0 29 -55 58 -123z"/>
<path d="M6187 5642 c-9 -10 -17 -25 -17 -33 -1 -8 -38 -102 -84 -209 -73
-169 -87 -196 -112 -207 -34 -14 -34 -14 34 -17 57 -2 61 0 35 20 -17 11 -17
15 -2 56 l16 43 126 3 126 3 21 -48 c19 -44 20 -49 4 -60 -15 -11 -14 -13 7
-18 26 -6 96 -1 105 8 3 3 -4 8 -15 12 -25 8 -32 20 -110 205 -85 199 -104
244 -111 253 -4 4 -14 -1 -23 -11z m58 -187 c25 -60 49 -116 52 -122 4 -10
-22 -13 -110 -13 l-116 0 46 108 c24 59 49 118 54 131 6 14 13 20 18 15 5 -5
30 -58 56 -119z"/>
<path d="M6532 5639 c-10 -15 -11 -24 -3 -32 14 -14 15 -371 1 -398 -6 -10
-18 -19 -27 -19 -9 0 -13 -3 -9 -7 9 -10 106 -13 106 -4 0 3 -10 11 -22 16
-23 10 -23 14 -26 193 -1 108 1 181 7 178 5 -3 78 -93 162 -200 84 -107 156
-193 161 -190 4 3 8 104 8 226 0 211 1 220 20 225 39 10 19 23 -35 23 -60 0
-68 -5 -30 -20 l25 -10 0 -177 -1 -178 -27 31 c-15 16 -85 105 -157 197 -71
91 -132 166 -135 167 -3 0 -11 -10 -18 -21z"/>
<path d="M7182 5638 c-6 -13 -47 -111 -92 -218 -83 -196 -101 -230 -127 -230
-8 0 -12 -4 -9 -9 7 -10 91 -9 102 2 4 4 0 7 -9 7 -27 0 -29 18 -8 65 l20 45
124 0 125 0 16 -40 c20 -51 20 -70 -1 -70 -9 0 -13 -3 -10 -6 9 -9 127 -12
132 -3 3 4 -6 10 -19 13 -25 6 -32 20 -151 304 -37 89 -71 162 -75 162 -4 0
-12 -10 -18 -22z m57 -178 c28 -67 51 -125 51 -130 0 -6 -47 -10 -111 -10
-102 0 -111 1 -105 18 28 73 102 241 107 242 3 0 29 -54 58 -120z"/>
<path d="M1080 5645 c0 -3 11 -10 25 -15 l25 -10 0 -210 0 -210 -25 -6 c-40
-10 -20 -18 48 -20 73 -1 88 4 55 20 -19 9 -24 21 -26 64 l-3 52 69 -6 c111
-11 195 29 226 107 40 100 -9 200 -112 229 -37 10 -282 14 -282 5z m269 -36
c48 -27 70 -59 83 -122 14 -65 -5 -117 -54 -147 -40 -26 -131 -24 -172 3 -26
17 -26 18 -26 152 l0 135 66 0 c49 0 76 -6 103 -21z"/>
<path d="M1550 5640 c0 -5 9 -10 20 -10 19 0 20 -7 20 -216 0 -207 -1 -216
-20 -221 -52 -14 -6 -19 156 -18 190 1 194 2 194 58 0 35 -4 34 -39 -5 l-29
-33 -104 0 -103 0 -3 103 -3 102 45 0 c60 0 76 -8 92 -44 12 -29 13 -26 13 54
0 81 -1 84 -15 58 -19 -36 -43 -48 -93 -48 l-41 0 0 105 0 105 100 0 c92 0
103 -2 124 -23 13 -13 25 -30 28 -38 10 -28 20 1 13 40 l-7 41 -174 0 c-109 0
-174 -4 -174 -10z"/>
<path d="M1966 5634 c-10 -25 -7 -74 4 -74 6 0 10 6 10 14 0 28 50 56 102 56
l48 0 -2 -212 c-3 -211 -3 -212 -26 -224 -33 -16 -15 -24 57 -23 61 1 79 12
41 24 -19 6 -20 15 -20 221 l0 214 45 0 c48 0 95 -23 95 -46 0 -7 5 -16 10
-19 6 -4 10 12 10 39 l0 46 -184 0 c-158 0 -185 -2 -190 -16z"/>
<path d="M2400 5641 c0 -5 9 -11 20 -14 19 -5 20 -14 20 -215 0 -202 -1 -211
-20 -217 -41 -13 -18 -23 50 -21 38 0 70 3 70 6 0 3 -10 10 -22 15 -19 8 -24
19 -26 61 l-3 50 96 -2 97 -1 38 -64 c36 -60 40 -63 79 -66 41 -3 56 11 24 21
-10 4 -37 36 -61 72 l-44 66 22 15 c12 9 31 34 41 57 43 94 9 183 -86 227 -32
15 -65 19 -167 19 -71 0 -128 -4 -128 -9z m264 -32 c52 -30 79 -80 80 -148 1
-38 -5 -65 -16 -83 l-17 -26 -49 49 c-56 55 -86 62 -139 29 l-33 -20 0 110 0
110 69 0 c53 0 79 -5 105 -21z m-64 -205 c24 -15 60 -61 60 -78 0 -13 -97 -5
-130 12 -45 22 -50 46 -13 66 36 20 49 20 83 0z"/>
<path d="M3370 5641 c0 -5 10 -11 22 -13 22 -3 49 -62 170 -365 18 -46 38 -83
44 -83 6 0 49 98 95 217 65 168 89 220 107 229 40 20 36 24 -21 24 -56 0 -76
-13 -37 -23 19 -5 18 -9 -16 -93 -19 -49 -51 -133 -71 -187 -21 -53 -40 -94
-44 -90 -7 8 -149 359 -149 368 0 3 7 5 15 5 8 0 15 5 15 10 0 6 -28 10 -65
10 -36 0 -65 -4 -65 -9z"/>
<path d="M4496 5634 c-10 -25 -7 -74 4 -74 6 0 10 6 10 14 0 28 50 56 102 56
l48 0 -2 -212 c-3 -210 -3 -213 -25 -223 -13 -5 -23 -12 -23 -15 0 -3 32 -5
70 -6 69 -1 90 8 50 21 -19 6 -20 15 -20 221 l0 214 48 0 c51 0 69 -9 96 -50
16 -24 16 -24 16 23 l0 47 -184 0 c-158 0 -185 -2 -190 -16z"/>
<path d="M4930 5641 c0 -5 9 -11 20 -14 19 -5 20 -14 20 -215 0 -202 -1 -211
-20 -217 -48 -15 -9 -20 159 -20 l179 0 6 39 c9 52 1 56 -33 15 l-29 -34 -106
-3 -106 -4 0 106 0 106 49 0 c52 0 74 -13 86 -50 13 -41 21 -18 19 56 -2 83
-8 100 -23 61 -13 -33 -39 -47 -90 -47 l-41 0 0 105 0 105 100 0 c92 0 103 -2
124 -23 13 -13 25 -30 28 -38 10 -28 19 -1 12 40 l-7 41 -173 0 c-96 0 -174
-4 -174 -9z"/>
<path d="M5340 5604 l0 -45 34 35 c30 32 39 36 85 36 l51 0 0 -201 c0 -201 -6
-239 -36 -239 -8 0 -13 -4 -10 -9 8 -12 136 -13 136 -2 0 6 -9 12 -19 16 -10
3 -21 14 -24 25 -2 10 -5 106 -6 214 l-2 196 55 0 c51 0 57 -3 85 -37 l31 -38
0 48 0 47 -190 0 -190 0 0 -46z"/>
<path d="M5770 5645 c0 -3 11 -10 25 -15 l25 -10 0 -210 0 -210 -25 -6 c-47
-12 -13 -25 53 -20 37 2 69 5 72 5 3 1 -6 7 -20 14 l-25 13 -3 207 -2 207 25
10 c14 5 25 12 25 15 0 3 -34 5 -75 5 -41 0 -75 -2 -75 -5z"/>
<path d="M2901 4828 c1 -29 4 -43 6 -30 2 12 10 22 17 22 20 0 37 25 30 44 -3
9 -17 16 -30 16 -22 0 -24 -3 -23 -52z m37 25 c-4 -22 -22 -20 -26 1 -2 10 3
16 13 16 10 0 15 -7 13 -17z"/>
<path d="M3062 4868 c-20 -20 -14 -65 10 -82 30 -21 44 -20 68 4 24 24 26 53
4 74 -18 19 -65 21 -82 4z m74 -23 c9 -35 -2 -55 -29 -55 -27 0 -47 17 -47 40
0 43 65 56 76 15z"/>
<path d="M3260 4831 c0 -31 5 -51 13 -54 23 -7 49 6 58 31 13 33 -12 72 -46
72 -23 0 -25 -4 -25 -49z m48 30 c8 -5 12 -21 10 -37 -2 -21 -9 -30 -25 -32
-21 -3 -23 1 -23 37 0 41 10 50 38 32z"/>
<path d="M3446 4864 c-22 -21 -20 -50 4 -74 24 -24 38 -25 68 -4 24 17 30 62
10 82 -17 17 -64 15 -82 -4z m78 -16 c16 -26 -4 -53 -40 -53 -23 0 -30 5 -32
23 -2 13 -1 30 2 38 8 20 56 14 70 -8z"/>
<path d="M3640 4830 c0 -45 2 -50 23 -49 12 0 16 3 10 6 -8 3 -13 23 -13 49 0
24 -4 44 -10 44 -5 0 -10 -22 -10 -50z"/>
<path d="M3782 4868 c-20 -20 -14 -65 10 -82 30 -21 44 -20 68 4 24 24 26 53
4 74 -18 19 -65 21 -82 4z m78 -18 c8 -14 8 -26 0 -40 -19 -35 -80 -20 -80 20
0 40 61 55 80 20z"/>
<path d="M3987 4862 c-23 -25 -21 -45 6 -70 29 -27 41 -28 67 -2 26 26 25 40
-2 40 -18 0 -20 -2 -8 -10 21 -13 -1 -33 -31 -28 -16 2 -25 11 -27 26 -5 34
16 55 50 48 18 -3 27 -2 23 4 -10 17 -61 11 -78 -8z"/>
<path d="M4185 4850 c8 -16 15 -39 15 -52 1 -18 4 -16 14 12 30 78 29 77 8 51
l-20 -24 -6 21 c-4 12 -12 22 -17 22 -5 0 -3 -13 6 -30z"/>
<path d="M4461 4828 c1 -29 4 -43 6 -32 2 12 13 24 24 27 29 8 22 51 -8 55
-22 3 -23 0 -22 -50z m34 22 c0 -7 -6 -15 -12 -17 -8 -3 -13 4 -13 17 0 13 5
20 13 18 6 -3 12 -11 12 -18z"/>
<path d="M4611 4828 c0 -29 3 -47 6 -40 3 7 16 24 30 38 20 20 22 28 13 39 -7
8 -21 15 -31 15 -16 0 -19 -8 -18 -52z m34 24 c0 -18 -20 -15 -23 4 -3 10 1
15 10 12 7 -3 13 -10 13 -16z"/>
<path d="M4779 4834 c-11 -26 -17 -49 -14 -52 2 -3 7 3 11 12 9 23 40 20 58
-6 9 -12 16 -18 16 -11 0 14 -39 103 -46 103 -3 0 -14 -21 -25 -46z m30 -13
c-15 -5 -22 6 -14 19 6 9 10 9 16 -1 5 -8 4 -15 -2 -18z"/>
<path d="M4956 4864 c-22 -21 -20 -50 4 -74 21 -21 29 -23 54 -14 27 10 18 21
-13 16 -22 -3 -32 1 -40 17 -18 33 3 64 40 59 16 -3 29 -1 29 4 0 14 -58 9
-74 -8z"/>
<path d="M5128 4873 c7 -3 12 -23 12 -49 0 -24 4 -44 9 -44 6 0 9 18 8 41 -1
26 4 43 13 49 11 7 5 10 -20 9 -19 0 -29 -3 -22 -6z"/>
<path d="M5270 4836 c0 -25 5 -48 10 -51 6 -4 10 13 10 44 0 28 -4 51 -10 51
-5 0 -10 -20 -10 -44z"/>
<path d="M5402 4868 c-35 -35 4 -104 52 -92 36 9 33 19 -5 19 -38 0 -60 26
-43 53 6 9 23 17 38 17 14 -1 26 3 26 7 0 13 -55 9 -68 -4z"/>
<path d="M5580 4830 c0 -48 1 -50 28 -49 23 2 24 2 5 6 -14 3 -23 12 -23 23 0
11 9 20 23 23 l22 4 -22 2 c-13 0 -23 7 -23 15 0 8 10 17 23 19 19 4 18 4 -5
6 -27 1 -28 -1 -28 -49z"/>
<path d="M4640 4802 c0 -12 19 -26 26 -19 2 2 -2 10 -11 17 -9 8 -15 8 -15 2z"/>
</g>
</svg>
