<?xml version="1.0" standalone="no"?>
<!DOCTYPE svg PUBLIC "-//W3C//DTD SVG 20010904//EN"
 "http://www.w3.org/TR/2001/REC-SVG-20010904/DTD/svg10.dtd">
<svg version="1.0" xmlns="http://www.w3.org/2000/svg"
 width="662.000000pt" height="350.000000pt" viewBox="0 0 662.000000 350.000000"
 preserveAspectRatio="xMidYMid meet">

<g transform="translate(0.000000,350.000000) scale(0.100000,-0.100000)"
fill="#000000" stroke="none">
<path d="M4956 3383 c-6 -14 -5 -15 5 -6 7 7 10 15 7 18 -3 3 -9 -2 -12 -12z"/>
<path d="M4872 3263 c-81 -109 -168 -188 -312 -285 -233 -158 -370 -267 -530
-423 -126 -124 -169 -159 -230 -191 -55 -28 -98 -62 -162 -127 -86 -87 -94
-99 -82 -131 8 -21 71 -59 103 -62 14 -2 31 -10 37 -19 15 -21 41 -19 72 5 17
14 29 17 36 10 16 -16 54 -12 65 8 8 14 12 15 22 5 22 -22 48 -14 71 21 19 29
27 34 51 29 24 -5 35 2 83 51 52 52 58 56 103 56 34 0 67 10 118 35 39 19 85
35 102 35 16 0 76 -11 133 -25 126 -31 195 -31 284 -4 116 36 154 79 100 114
-82 54 -260 69 -426 36 -167 -33 -226 -59 -395 -175 -81 -55 -111 -71 -113
-60 -2 8 4 26 12 39 9 14 12 25 7 25 -16 0 -41 -43 -41 -70 0 -21 -9 -30 -46
-48 l-46 -23 4 43 c3 24 8 51 12 61 5 10 4 17 -2 17 -13 0 -32 -55 -32 -95 0
-34 -13 -45 -52 -45 -19 0 -20 4 -14 48 3 26 8 63 12 82 5 25 3 32 -5 25 -6
-6 -16 -38 -22 -70 -17 -96 -16 -95 -60 -95 -26 0 -42 5 -46 15 -6 18 52 159
73 176 16 13 19 29 6 29 -13 0 -83 -121 -89 -155 -12 -62 -36 -70 -85 -26
l-33 29 70 74 c82 86 120 116 195 153 38 19 100 73 200 170 170 167 309 280
536 435 170 116 246 188 337 315 55 78 40 68 -21 -12z m-66 -868 c95 -22 145
-45 142 -64 -7 -36 -152 -91 -243 -91 -22 0 -86 11 -143 25 -136 33 -168 32
-241 -6 -40 -21 -81 -34 -125 -38 -37 -4 -63 -4 -59 -1 176 142 477 221 669
175z m-695 -202 c-20 -38 -79 -86 -97 -79 -20 8 -19 8 49 57 60 44 61 45 48
22z m-151 -102 c0 -14 -41 -41 -52 -35 -14 9 -9 21 15 32 28 14 37 14 37 3z
m-110 -41 c0 -5 -7 -10 -16 -10 -8 0 -12 5 -9 10 3 6 10 10 16 10 5 0 9 -4 9
-10z m-100 -20 c0 -5 -9 -10 -19 -10 -11 0 -23 5 -26 10 -4 6 5 10 19 10 14 0
26 -4 26 -10z"/>
<path d="M2960 3296 c0 -9 16 -17 43 -21 127 -22 149 -52 155 -217 l4 -118
-343 -2 -344 -3 -9 -109 c-8 -100 -8 -110 9 -122 28 -21 39 -17 59 17 28 48
82 97 138 125 77 39 166 54 331 54 l147 0 0 -291 0 -292 59 -121 c32 -66 66
-142 76 -168 l18 -48 51 0 c29 0 60 6 70 13 17 12 13 16 -37 47 -44 26 -56 40
-60 64 -3 17 -6 203 -5 414 l0 382 151 0 c93 0 178 -6 220 -15 122 -26 208
-88 265 -193 28 -51 29 -52 47 -33 15 18 17 32 11 108 -4 48 -9 107 -13 131
l-5 42 -337 0 -337 0 -3 78 c-1 42 1 119 5 171 l7 93 236 -5 c264 -5 332 -17
465 -81 107 -52 236 -166 283 -251 8 -14 19 -10 81 32 39 26 71 54 72 60 0 21
-128 120 -209 162 -95 49 -220 87 -331 101 -47 5 -282 10 -527 10 -375 0 -443
-2 -443 -14z"/>
<path d="M4487 2805 c-43 -31 -77 -58 -77 -60 0 -2 6 -32 14 -67 8 -35 17 -94
21 -131 6 -57 9 -67 23 -63 10 3 47 10 85 17 l67 11 2 42 c5 134 -20 294 -48
303 -6 2 -45 -22 -87 -52z"/>
<path d="M5048 2783 c-86 -89 -94 -119 -57 -203 11 -25 17 -34 13 -20 -4 14
-9 48 -11 75 -4 47 -1 53 44 109 93 114 97 126 11 39z"/>
<path d="M2011 2664 c-63 -19 -120 -33 -126 -30 -13 5 -305 -51 -314 -59 -9
-10 27 -4 144 20 66 14 142 25 168 25 26 0 93 14 149 30 55 17 117 30 137 30
80 0 191 -40 364 -131 94 -50 200 -104 235 -120 35 -15 86 -48 113 -73 27 -24
83 -61 124 -82 l74 -39 39 -85 c55 -120 96 -229 89 -236 -3 -4 -23 2 -44 13
-29 14 -45 33 -68 79 -16 33 -42 75 -56 94 -14 19 -29 43 -32 53 -4 11 -17 17
-39 17 -18 0 -51 11 -73 25 -27 16 -53 24 -80 23 -31 -1 -34 -2 -12 -5 23 -4
33 -14 52 -56 12 -29 32 -61 44 -71 14 -13 21 -31 21 -58 0 -21 7 -54 15 -73
20 -50 30 -151 16 -160 -21 -12 -41 16 -41 59 0 22 -5 59 -11 81 -11 38 -130
267 -136 261 -2 -1 6 -25 17 -52 17 -40 19 -56 10 -78 l-10 -28 -34 29 c-24
19 -35 37 -35 57 -1 16 -10 44 -22 62 -21 35 -32 45 -23 20 4 -10 0 -14 -12
-12 -35 5 -23 21 37 49 71 33 74 47 5 17 -26 -11 -53 -20 -60 -20 -7 0 -20 18
-30 40 -17 39 -38 51 -52 29 -3 -6 3 -23 15 -37 12 -15 32 -51 46 -79 13 -29
35 -64 50 -77 24 -23 25 -26 14 -77 -6 -30 -14 -57 -18 -62 -4 -4 -21 12 -37
35 -39 56 -94 92 -189 128 -43 16 -89 39 -102 52 -36 34 -111 162 -119 203 -6
34 -44 75 -68 75 -6 -1 1 -7 15 -15 19 -10 30 -28 38 -59 15 -59 16 -55 -21
-71 -26 -11 -28 -14 -12 -15 12 0 27 7 34 15 10 12 20 3 59 -62 51 -86 86
-114 169 -138 81 -24 132 -56 173 -112 51 -69 51 -68 38 -113 -11 -35 -10 -43
4 -57 15 -15 18 -15 43 1 21 15 31 16 51 7 38 -18 44 -13 17 14 -20 20 -23 29
-14 44 17 33 27 33 54 0 l26 -31 0 26 c0 14 -7 46 -16 71 -15 45 -12 105 5
105 19 0 73 -123 77 -178 7 -80 12 -98 30 -116 22 -23 43 -20 50 8 l6 24 23
-24 c13 -13 29 -24 35 -24 6 0 9 50 8 148 l-2 147 -3 -137 c-2 -78 -8 -138
-13 -138 -16 0 -41 46 -46 86 -3 22 -12 53 -20 71 -8 17 -14 50 -14 73 0 33
-7 50 -30 76 -29 33 -75 114 -66 114 3 0 22 -11 42 -25 20 -14 50 -25 65 -25
23 0 34 -9 55 -42 15 -24 30 -45 35 -48 4 -3 18 -30 32 -60 28 -62 57 -92 106
-109 59 -19 60 -3 7 126 -77 191 -91 213 -167 253 -90 48 -127 76 -145 111 -8
16 -19 27 -24 24 -5 -3 -44 13 -87 35 -43 22 -69 38 -58 36 11 -2 35 -8 54
-11 19 -4 45 -19 58 -33 13 -14 27 -22 31 -18 4 4 -7 20 -24 36 -24 21 -50 31
-105 40 -73 12 -135 39 -269 115 -77 43 -214 85 -279 85 -25 -1 -97 -17 -160
-36z m679 -505 c7 -11 9 -28 5 -37 -6 -14 -10 -12 -31 13 -13 17 -24 33 -24
38 0 16 40 6 50 -14z m54 -110 c38 -45 33 -71 -18 -83 -24 -6 -28 -11 -24 -36
5 -36 3 -37 -18 -5 -15 23 -15 30 1 90 10 36 21 65 26 65 4 0 19 -14 33 -31z
m55 -99 c9 -28 9 -29 -9 -20 -11 6 -20 20 -20 30 0 30 17 24 29 -10z m-59 -8
c0 -13 -12 -22 -22 -16 -10 6 -1 24 13 24 5 0 9 -4 9 -8z m-52 -79 c-19 -23
-38 -15 -38 15 0 40 11 47 31 20 13 -16 15 -26 7 -35z"/>
<path d="M5011 2514 c0 -11 3 -14 6 -6 3 7 2 16 -1 19 -3 4 -6 -2 -5 -13z"/>
<path d="M2040 2296 c-25 -7 -89 -36 -142 -65 -53 -29 -158 -74 -234 -102
-208 -75 -193 -79 29 -8 72 23 157 61 220 96 56 32 131 66 167 75 41 11 54 17
35 17 -16 -1 -50 -6 -75 -13z"/>
<path d="M2747 2225 c3 -8 9 -12 14 -9 12 7 11 11 -5 17 -10 4 -13 1 -9 -8z"/>
<path d="M4339 2126 c-134 -158 -293 -222 -532 -214 -62 2 -119 7 -127 11 -17
7 -77 -40 -65 -51 14 -14 289 -6 371 11 183 39 362 137 459 250 39 45 34 57
-21 57 -27 0 -40 -10 -85 -64z"/>
<path d="M3599 2003 l-24 -28 28 24 c25 23 32 31 24 31 -2 0 -14 -12 -28 -27z"/>
<path d="M3537 1955 c-15 -14 -24 -25 -19 -25 5 0 19 11 32 25 30 32 23 32
-13 0z"/>
<path d="M3470 1915 c-14 -8 -20 -14 -14 -15 5 0 19 7 30 15 24 18 16 19 -16
0z"/>
<path d="M3155 1669 c4 -97 3 -159 -4 -186 -14 -50 -58 -90 -109 -98 -72 -12
-82 -16 -82 -30 0 -13 39 -15 280 -15 238 0 280 2 280 15 0 9 -14 16 -37 20
-94 16 -151 56 -155 108 -1 22 -6 181 -7 263 l-1 41 -62 6 c-35 4 -74 10 -87
13 l-24 7 8 -144z"/>
<path d="M2010 1040 c-98 -46 -144 -118 -145 -225 0 -129 72 -220 192 -244
120 -23 223 25 276 129 25 48 28 64 25 126 -4 90 -40 154 -112 199 -65 40
-168 46 -236 15z m166 -19 c112 -51 166 -217 110 -337 -32 -68 -81 -99 -156
-98 -30 0 -68 8 -85 17 -77 40 -128 133 -128 237 -1 95 36 157 113 192 29 13
105 7 146 -11z"/>
<path d="M2970 1038 c-6 -13 -48 -113 -94 -223 -65 -154 -91 -203 -110 -215
-38 -22 -32 -29 23 -27 44 2 88 17 48 17 -27 0 -30 19 -10 65 l18 45 125 0
125 0 19 -47 c19 -45 19 -46 1 -59 -23 -17 -25 -16 53 -19 60 -2 81 7 43 20
-20 6 -44 56 -152 312 -35 84 -67 153 -72 153 -4 0 -12 -10 -17 -22z m58 -181
c29 -67 52 -126 52 -130 0 -4 -49 -7 -110 -7 -60 0 -110 3 -110 6 0 12 104
254 110 254 3 0 29 -55 58 -123z"/>
<path d="M5177 1042 c-9 -10 -17 -25 -17 -32 0 -11 -115 -287 -157 -378 -9
-19 -25 -35 -40 -38 -36 -9 -19 -18 38 -20 48 -1 64 8 34 20 -19 7 -19 27 2
71 l17 35 122 0 123 0 21 -47 c19 -42 19 -49 5 -59 -8 -6 -15 -13 -15 -15 0
-2 29 -5 65 -5 64 -2 85 8 44 21 -23 8 -41 43 -145 290 -36 88 -70 163 -74
168 -3 4 -14 -1 -23 -11z m61 -197 c28 -65 50 -121 48 -122 -2 -2 -53 -2 -114
-1 l-111 3 48 110 c26 61 50 119 54 129 11 28 19 15 75 -119z"/>
<path d="M5523 1042 c-7 -12 -8 -24 -2 -33 12 -20 11 -376 -1 -400 -6 -10 -18
-19 -26 -19 -8 0 -12 -5 -9 -11 7 -11 90 -8 101 4 4 4 0 7 -9 7 -9 0 -21 9
-27 19 -13 25 -14 365 -1 357 5 -4 76 -90 156 -194 81 -103 154 -188 161 -190
12 -3 14 35 14 218 0 213 1 222 20 227 39 10 19 23 -35 23 -60 0 -68 -5 -30
-20 l25 -10 0 -175 c0 -96 -2 -175 -4 -175 -6 0 -266 326 -291 363 -21 32 -26
33 -42 9z"/>
<path d="M6172 1038 c-6 -13 -47 -111 -93 -218 -83 -197 -101 -230 -126 -230
-8 0 -12 -4 -8 -9 6 -10 92 -8 102 3 4 3 -1 6 -10 6 -27 0 -29 18 -8 65 l20
45 124 0 124 0 17 -43 c18 -49 20 -67 6 -67 -5 0 -10 -4 -10 -9 0 -5 28 -8 63
-6 78 3 77 3 47 18 -29 14 -51 57 -151 295 -40 94 -75 172 -79 172 -4 0 -12
-10 -18 -22z m56 -180 c29 -68 52 -126 52 -130 0 -5 -50 -8 -111 -8 -62 0
-109 4 -107 9 24 65 104 251 109 251 3 0 29 -55 57 -122z"/>
<path d="M80 1041 c0 -5 9 -11 20 -14 19 -5 20 -14 20 -215 0 -202 -1 -211
-20 -217 -38 -12 -20 -20 43 -19 85 2 85 3 57 17 -21 11 -25 21 -28 64 l-3 52
69 -6 c112 -9 195 31 226 108 40 100 -9 200 -112 229 -45 12 -272 13 -272 1z
m272 -36 c15 -11 36 -36 47 -56 83 -146 -31 -276 -189 -213 l-40 16 0 140 0
140 78 -3 c57 -3 84 -9 104 -24z"/>
<path d="M540 1040 c0 -5 9 -10 20 -10 19 0 20 -7 20 -214 0 -206 -1 -215 -20
-221 -51 -16 4 -24 163 -22 l172 2 9 37 c13 51 3 56 -32 16 -30 -33 -30 -33
-137 -36 l-106 -4 3 104 3 103 42 3 c51 4 81 -10 89 -43 12 -49 19 -24 16 57
-4 79 -4 82 -18 56 -19 -35 -43 -48 -93 -48 l-41 0 0 105 0 105 100 0 c92 0
103 -2 124 -23 13 -13 25 -30 28 -38 10 -28 20 1 13 40 l-7 41 -174 0 c-109 0
-174 -4 -174 -10z"/>
<path d="M956 1028 c-9 -35 -7 -68 4 -68 6 0 10 6 10 14 0 28 50 56 102 56
l48 0 -2 -212 c-3 -210 -3 -213 -25 -223 -38 -16 -26 -22 47 -22 69 1 89 10
50 22 -19 6 -20 15 -20 221 l0 214 45 0 c48 0 95 -23 95 -46 0 -7 5 -16 10
-19 6 -4 10 12 10 39 l0 46 -184 0 c-182 0 -184 0 -190 -22z"/>
<path d="M1380 1045 c0 -3 11 -10 25 -15 l25 -10 0 -209 c0 -201 -1 -210 -20
-216 -40 -13 -18 -22 50 -21 74 1 84 5 48 21 -19 8 -24 19 -26 61 l-3 50 96
-2 96 -1 39 -63 c36 -59 41 -63 79 -65 42 -3 55 9 23 19 -10 3 -37 36 -61 72
l-43 66 22 15 c12 9 31 34 41 57 43 94 9 183 -86 227 -32 15 -65 19 -172 19
-73 0 -133 -2 -133 -5z m269 -34 c21 -11 45 -31 55 -45 25 -39 40 -115 29
-155 -15 -57 -32 -59 -84 -7 -53 53 -82 58 -135 25 l-34 -21 0 111 0 111 65 0
c45 0 78 -6 104 -19z m-59 -207 c24 -15 60 -61 60 -78 0 -13 -97 -5 -130 12
-44 22 -48 42 -13 64 35 22 48 22 83 2z"/>
<path d="M2360 1040 c0 -5 9 -10 21 -10 23 0 16 13 128 -261 42 -102 81 -188
86 -190 6 -1 45 87 87 196 98 253 93 244 123 255 39 15 30 20 -32 20 -56 0
-57 -1 -37 -18 l21 -17 -72 -184 c-40 -101 -75 -179 -78 -175 -6 12 -147 364
-147 370 0 2 7 4 15 4 8 0 15 5 15 10 0 6 -28 10 -65 10 -37 0 -65 -4 -65 -10z"/>
<path d="M3486 1034 c-10 -25 -7 -74 4 -74 6 0 10 6 10 14 0 28 50 56 102 56
l48 0 -2 -212 c-3 -210 -3 -213 -25 -223 -38 -16 -26 -22 42 -20 69 2 90 9 56
20 -20 6 -21 13 -21 221 l0 214 46 0 c55 0 79 -12 98 -48 l15 -27 1 48 0 47
-184 0 c-158 0 -185 -2 -190 -16z"/>
<path d="M3920 1041 c0 -5 9 -11 20 -14 19 -5 20 -14 20 -217 0 -203 -1 -212
-20 -217 -11 -3 -20 -8 -20 -12 0 -7 346 -8 353 -1 3 3 8 22 12 43 5 26 4 37
-5 37 -6 0 -14 -9 -17 -19 -9 -34 -63 -51 -162 -51 l-91 0 0 105 0 105 48 0
c52 0 78 -14 84 -44 1 -11 7 -20 13 -20 9 -1 9 144 -1 153 -2 2 -8 -8 -13 -22
-13 -33 -39 -47 -90 -47 l-41 0 0 105 0 105 100 0 c92 0 103 -2 124 -23 13
-13 25 -30 28 -38 10 -28 19 -1 12 40 l-7 41 -173 0 c-96 0 -174 -4 -174 -9z"/>
<path d="M4330 1004 l0 -45 34 35 c30 32 39 36 85 36 l51 0 0 -201 c0 -203 -6
-239 -37 -239 -9 0 -13 -3 -9 -7 10 -10 136 -11 136 -1 0 4 -6 8 -14 8 -8 0
-18 5 -22 12 -4 6 -8 105 -8 220 l-1 208 53 0 c53 0 58 -3 96 -55 14 -19 15
-17 16 28 l0 47 -190 0 -190 0 0 -46z"/>
<path d="M4770 1041 c0 -5 9 -11 20 -14 19 -5 20 -14 20 -215 0 -202 -1 -211
-20 -217 -39 -13 -19 -21 48 -19 83 2 83 2 52 17 l-25 13 -3 207 -2 207 25 10
c40 15 30 20 -45 20 -38 0 -70 -4 -70 -9z"/>
<path d="M1891 228 c1 -29 4 -44 6 -33 2 11 14 25 26 30 32 15 29 49 -5 53
-28 3 -28 3 -27 -50z m39 28 c0 -8 -4 -17 -9 -21 -12 -7 -24 12 -16 25 9 15
25 12 25 -4z"/>
<path d="M2052 268 c-21 -21 -14 -66 13 -84 30 -20 63 -10 76 23 12 33 12 39
-7 57 -18 19 -65 21 -82 4z m68 -12 c6 -8 10 -25 8 -38 -6 -42 -78 -32 -78 11
0 37 46 55 70 27z"/>
<path d="M2250 231 c0 -38 4 -50 18 -53 26 -7 42 2 53 29 13 34 -12 73 -46 73
-23 0 -25 -4 -25 -49z m48 30 c8 -5 12 -21 10 -37 -2 -21 -9 -30 -25 -32 -21
-3 -23 1 -23 37 0 41 10 50 38 32z"/>
<path d="M2436 264 c-9 -8 -16 -24 -16 -35 0 -24 34 -59 58 -59 41 0 69 69 40
98 -17 17 -64 15 -82 -4z m78 -16 c16 -26 -4 -53 -40 -53 -23 0 -30 5 -32 23
-2 13 -1 30 2 38 8 20 56 14 70 -8z"/>
<path d="M2630 231 c0 -47 2 -51 23 -50 12 1 16 3 7 5 -11 3 -14 15 -12 43 2
21 -1 42 -7 45 -7 5 -11 -9 -11 -43z"/>
<path d="M2772 268 c-21 -21 -14 -66 13 -84 49 -32 104 23 75 75 -12 24 -68
29 -88 9z m75 -21 c14 -30 -1 -57 -31 -57 -35 0 -52 25 -38 55 15 33 55 34 69
2z"/>
<path d="M2977 262 c-23 -25 -21 -47 5 -72 27 -25 43 -25 68 0 26 26 25 40 -2
40 -18 0 -20 -2 -8 -10 21 -13 -1 -33 -31 -28 -19 2 -24 9 -24 32 0 38 27 56
56 38 18 -11 20 -11 17 0 -7 21 -62 22 -81 0z"/>
<path d="M3175 250 c8 -16 15 -39 15 -52 1 -18 4 -16 14 12 30 78 29 77 8 51
l-20 -24 -6 21 c-4 12 -12 22 -17 22 -5 0 -3 -13 6 -30z"/>
<path d="M3451 228 c1 -29 4 -43 6 -32 2 12 13 24 24 27 29 8 22 51 -8 55 -22
3 -23 0 -22 -50z m34 22 c0 -7 -6 -15 -12 -17 -8 -3 -13 4 -13 17 0 13 5 20
13 18 6 -3 12 -11 12 -18z"/>
<path d="M3601 228 c1 -29 3 -45 6 -35 6 21 19 22 27 2 3 -8 11 -15 17 -15 8
0 5 7 -5 19 -11 12 -14 21 -7 26 6 3 11 17 11 31 0 19 -5 24 -25 24 -24 0 -25
-3 -24 -52z m37 25 c-5 -25 -28 -28 -28 -4 0 12 6 21 16 21 9 0 14 -7 12 -17z"/>
<path d="M3771 234 c-23 -48 -23 -66 -1 -39 18 21 36 19 54 -7 9 -12 16 -18
16 -11 0 12 -39 103 -44 103 -2 0 -14 -21 -25 -46z m33 1 c3 -9 0 -15 -9 -15
-9 0 -12 6 -9 15 4 8 7 15 9 15 2 0 5 -7 9 -15z"/>
<path d="M3940 259 c-16 -30 -4 -68 25 -79 26 -10 55 -4 55 11 0 6 -9 5 -20
-1 -28 -15 -63 20 -51 52 7 18 16 23 40 22 17 -1 31 2 31 7 0 5 -16 9 -35 9
-25 0 -37 -6 -45 -21z"/>
<path d="M4118 273 c7 -3 12 -23 12 -49 0 -29 4 -43 11 -39 6 4 7 19 4 35 -4
19 -1 33 10 44 15 15 14 16 -17 15 -18 0 -27 -3 -20 -6z"/>
<path d="M4267 273 c-9 -14 -5 -83 4 -89 5 -3 9 18 9 45 0 49 -3 60 -13 44z"/>
<path d="M4390 259 c-17 -31 -8 -62 22 -79 24 -13 29 -13 42 0 14 13 12 15
-16 15 -37 0 -59 26 -42 53 6 9 23 17 38 17 14 -1 26 3 26 7 0 4 -13 8 -30 8
-19 0 -33 -7 -40 -21z"/>
<path d="M4570 227 c0 -47 2 -53 20 -52 28 2 38 15 12 15 -31 0 -30 37 1 43
l22 4 -22 2 c-13 0 -23 7 -23 15 0 8 10 17 23 19 19 4 18 4 -5 6 -27 1 -28 0
-28 -52z"/>
</g>
</svg>
