<?xml version="1.0" standalone="no"?>
<!DOCTYPE svg PUBLIC "-//W3C//DTD SVG 20010904//EN"
 "http://www.w3.org/TR/2001/REC-SVG-20010904/DTD/svg10.dtd">
<svg version="1.0" xmlns="http://www.w3.org/2000/svg"
 width="612.000000pt" height="612.000000pt" viewBox="0 0 612.000000 612.000000"
 preserveAspectRatio="xMidYMid meet">

<g transform="translate(0.000000,612.000000) scale(0.100000,-0.100000)"
fill="#000000" stroke="none">
<path d="M2895 5394 c-432 -42 -778 -158 -1105 -372 -571 -372 -940 -949
-1046 -1632 -24 -157 -25 -489 0 -654 98 -674 477 -1268 1042 -1636 607 -395
1352 -486 2044 -248 477 164 898 494 1192 935 135 202 269 524 322 773 41 194
50 286 50 500 0 271 -29 468 -106 710 -271 851 -1011 1477 -1899 1605 -102 15
-415 27 -494 19z m510 -269 c432 -79 807 -269 1104 -558 332 -323 531 -697
616 -1162 26 -137 31 -459 11 -612 -62 -471 -273 -892 -613 -1224 -278 -271
-578 -442 -940 -535 -206 -52 -343 -67 -578 -61 -323 8 -564 65 -846 199 -235
112 -414 243 -611 444 -286 295 -472 664 -555 1104 -25 135 -25 543 0 680 87
464 285 841 609 1155 347 338 757 531 1248 589 87 10 468 -3 555 -19z"/>
<path d="M2994 4921 c-49 -30 -56 -60 -52 -241 l3 -162 33 -29 c47 -43 102
-41 148 5 l34 34 0 160 c0 89 -4 172 -10 186 -11 31 -65 66 -100 66 -14 0 -39
-9 -56 -19z"/>
<path d="M3020 4349 c-19 -4 -47 -21 -62 -38 l-28 -31 0 -507 0 -506 -36 -35
c-120 -116 -90 -312 59 -387 28 -14 61 -25 74 -25 19 0 50 -47 199 -297 212
-360 201 -344 248 -367 32 -16 44 -17 76 -7 54 16 90 62 90 114 0 35 -26 84
-186 355 l-185 314 15 39 c38 95 3 224 -75 278 l-38 26 -1 502 0 503 -27 30
c-33 36 -75 49 -123 39z"/>
<path d="M4524 3170 c-36 -14 -64 -59 -64 -102 0 -32 7 -47 35 -75 l34 -34
175 3 c168 3 175 4 200 27 51 48 42 135 -18 172 -27 16 -51 19 -186 18 -85 0
-165 -4 -176 -9z"/>
<path d="M1243 3150 c-28 -11 -63 -66 -63 -98 0 -36 28 -80 61 -97 25 -13 60
-16 196 -13 l165 3 29 33 c43 47 41 102 -5 148 l-34 34 -163 -1 c-90 0 -174
-4 -186 -9z"/>
<path d="M2994 1626 l-34 -34 0 -160 c0 -89 4 -172 10 -186 11 -30 65 -66 98
-66 36 0 80 27 97 60 12 22 15 66 15 191 l0 161 -34 34 c-28 28 -42 34 -76 34
-34 0 -48 -6 -76 -34z"/>
</g>
</svg>
